<svg width="50" height="50" viewBox="0 0 50 50" fill="none" xmlns="http://www.w3.org/2000/svg">
<path d="M12.7331 16.1849L4.27042 25L12.7331 33.8151C12.9061 33.9882 13.0498 34.2028 13.1556 34.4461C13.2615 34.6895 13.3275 34.9568 13.3498 35.2324C13.372 35.508 13.3501 35.7864 13.2852 36.0513C13.2203 36.3162 13.1138 36.5623 12.972 36.7751C12.8301 36.9879 12.6557 37.1633 12.459 37.2908C12.2623 37.4184 12.0471 37.4956 11.8262 37.518C11.6054 37.5404 11.3831 37.5075 11.1725 37.4213C10.9619 37.335 10.7672 37.1971 10.5997 37.0156L0.599512 26.599C0.411867 26.4035 0.260901 26.1588 0.157301 25.8822C0.0537009 25.6057 0 25.3041 0 24.9987C0 24.6934 0.0537009 24.3918 0.157301 24.1152C0.260901 23.8387 0.411867 23.594 0.599512 23.3985L10.5997 12.9818C10.9395 12.6282 11.3778 12.4578 11.8181 12.5081C12.2585 12.5584 12.6648 12.8253 12.9477 13.25C13.2306 13.6748 13.3669 14.2226 13.3267 14.773C13.2864 15.3234 13.0729 15.8313 12.7331 16.1849ZM49.4005 23.3985L39.4003 12.9818C39.232 12.8067 39.0378 12.6748 38.8288 12.5935C38.6197 12.5122 38.3999 12.4832 38.1819 12.5081C37.9638 12.533 37.7519 12.6113 37.5581 12.7387C37.3643 12.866 37.1924 13.0397 37.0523 13.25C36.7694 13.6748 36.6331 14.2226 36.6733 14.773C36.7136 15.3234 36.9271 15.8313 37.2669 16.1849L45.7296 25L37.2669 33.8151C37.0939 33.9882 36.9502 34.2028 36.8444 34.4461C36.7385 34.6895 36.6725 34.9568 36.6502 35.2324C36.628 35.508 36.6499 35.7864 36.7148 36.0513C36.7797 36.3162 36.8862 36.5623 37.028 36.7751C37.1699 36.9879 37.3443 37.1633 37.541 37.2908C37.7377 37.4184 37.9529 37.4956 38.1737 37.518C38.3946 37.5404 38.6169 37.5075 38.8275 37.4213C39.0381 37.335 39.2328 37.1971 39.4003 37.0156L49.4005 26.599C49.5881 26.4035 49.7391 26.1588 49.8427 25.8822C49.9463 25.6057 50 25.3041 50 24.9987C50 24.6934 49.9463 24.3918 49.8427 24.1152C49.7391 23.8387 49.5881 23.594 49.4005 23.3985ZM32.2356 0.125069C32.0298 0.0316999 31.8114 -0.0100993 31.5927 0.0020578C31.374 0.0142149 31.1594 0.0800905 30.9611 0.195923C30.7628 0.311755 30.5847 0.475274 30.437 0.677146C30.2893 0.879018 30.1748 1.11529 30.1001 1.37246L16.7665 47.2057C16.6915 47.4631 16.6578 47.7363 16.6674 48.01C16.6769 48.2836 16.7296 48.5521 16.8223 48.8003C16.9149 49.0485 17.0459 49.2714 17.2075 49.4562C17.3692 49.6411 17.5584 49.7843 17.7644 49.8776C17.947 49.9589 18.1394 50.0003 18.3332 50C18.6755 50 19.0095 49.8683 19.2898 49.6228C19.5701 49.3772 19.7831 49.0298 19.8999 48.6276L33.2335 2.79434C33.3082 2.53716 33.3416 2.26412 33.3319 1.9908C33.3222 1.71747 33.2695 1.44922 33.1768 1.20135C33.0841 0.953483 32.9533 0.73086 32.7918 0.546191C32.6303 0.361522 32.4413 0.218424 32.2356 0.125069Z" fill="black"/>
</svg>
