<svg width="48" height="50" viewBox="0 0 48 50" fill="none" xmlns="http://www.w3.org/2000/svg">
<path d="M23.0001 4.16669C20.2642 4.16669 17.5551 4.70556 15.0275 5.75253C12.4999 6.7995 10.2032 8.33408 8.26869 10.2686C4.36168 14.1756 2.16675 19.4747 2.16675 25C2.16675 34.2084 8.14592 42.0209 16.4167 44.7917C17.4584 44.9584 17.7917 44.3125 17.7917 43.75V40.2292C12.0209 41.4792 10.7917 37.4375 10.7917 37.4375C9.83342 35.0209 8.47925 34.375 8.47925 34.375C6.58342 33.0834 8.62508 33.125 8.62508 33.125C10.7084 33.2709 11.8126 35.2709 11.8126 35.2709C13.6251 38.4375 16.6876 37.5 17.8751 37C18.0626 35.6459 18.6042 34.7292 19.1876 34.2084C14.5626 33.6875 9.70842 31.8959 9.70842 23.9584C9.70842 21.6459 10.5001 19.7917 11.8542 18.3125C11.6459 17.7917 10.9167 15.625 12.0626 12.8125C12.0626 12.8125 13.8126 12.25 17.7917 14.9375C19.4376 14.4792 21.2292 14.25 23.0001 14.25C24.7709 14.25 26.5626 14.4792 28.2084 14.9375C32.1876 12.25 33.9376 12.8125 33.9376 12.8125C35.0834 15.625 34.3543 17.7917 34.1459 18.3125C35.5001 19.7917 36.2917 21.6459 36.2917 23.9584C36.2917 31.9167 31.4168 33.6667 26.7709 34.1875C27.5209 34.8334 28.2084 36.1042 28.2084 38.0417V43.75C28.2084 44.3125 28.5418 44.9792 29.6043 44.7917C37.8751 42 43.8334 34.2084 43.8334 25C43.8334 22.2641 43.2945 19.5551 42.2476 17.0274C41.2006 14.4998 39.666 12.2032 37.7315 10.2686C35.7969 8.33408 33.5003 6.7995 30.9727 5.75253C28.445 4.70556 25.736 4.16669 23.0001 4.16669Z" fill="black"/>
</svg>
