<svg width="48" height="50" viewBox="0 0 48 50" fill="none" xmlns="http://www.w3.org/2000/svg">
<path d="M1.125 3.125V46.875H44.875V3.125H1.125ZM24.9344 37.2453C24.9344 41.5031 22.4344 43.4469 18.7922 43.4469C15.5016 43.4469 13.5969 41.7484 12.6203 39.6875L15.9703 37.6656C16.6156 38.8078 17.2016 39.775 18.6172 39.775C19.9641 39.775 20.8234 39.2469 20.8234 37.1875V23.2125H24.9344V37.2453ZM34.6594 43.4469C30.8406 43.4469 28.3703 41.6313 27.1687 39.2469L30.5188 37.3141C31.3984 38.75 32.55 39.8141 34.5719 39.8141C36.2703 39.8141 37.3656 38.9641 37.3656 37.7828C37.3656 36.3766 36.2516 35.8781 34.3672 35.0484L33.3422 34.6094C30.3734 33.35 28.4109 31.7578 28.4109 28.4078C28.4109 25.3219 30.7641 22.9781 34.4266 22.9781C37.0437 22.9781 38.9188 23.8859 40.2672 26.2688L37.0641 28.3203C36.3609 27.0609 35.5984 26.5625 34.4172 26.5625C33.2172 26.5625 32.4547 27.325 32.4547 28.3203C32.4547 29.5516 33.2172 30.0484 34.9844 30.8203L36.0094 31.2594C39.5063 32.7531 41.4687 34.2875 41.4687 37.7234C41.4687 41.4156 38.5578 43.4453 34.6609 43.4453L34.6594 43.4469Z" fill="black"/>
</svg>
