<svg width="48" height="50" viewBox="0 0 48 50" fill="none" xmlns="http://www.w3.org/2000/svg">
<path d="M37.5833 6.25C38.6884 6.25 39.7482 6.68899 40.5296 7.47039C41.311 8.25179 41.75 9.3116 41.75 10.4167V39.5833C41.75 40.6884 41.311 41.7482 40.5296 42.5296C39.7482 43.311 38.6884 43.75 37.5833 43.75H8.41667C7.3116 43.75 6.25179 43.311 5.47039 42.5296C4.68899 41.7482 4.25 40.6884 4.25 39.5833V10.4167C4.25 9.3116 4.68899 8.25179 5.47039 7.47039C6.25179 6.68899 7.3116 6.25 8.41667 6.25H37.5833ZM36.5417 38.5417V27.5C36.5417 25.6987 35.8261 23.9712 34.5524 22.6976C33.2787 21.4239 31.5513 20.7083 29.75 20.7083C27.9792 20.7083 25.9167 21.7917 24.9167 23.4167V21.1042H19.1042V38.5417H24.9167V28.2708C24.9167 26.6667 26.2083 25.3542 27.8125 25.3542C28.586 25.3542 29.3279 25.6615 29.8749 26.2084C30.4219 26.7554 30.7292 27.4973 30.7292 28.2708V38.5417H36.5417ZM12.3333 17.8333C13.2616 17.8333 14.1518 17.4646 14.8082 16.8082C15.4646 16.1518 15.8333 15.2616 15.8333 14.3333C15.8333 12.3958 14.2708 10.8125 12.3333 10.8125C11.3996 10.8125 10.504 11.1834 9.84373 11.8437C9.18344 12.504 8.8125 13.3996 8.8125 14.3333C8.8125 16.2708 10.3958 17.8333 12.3333 17.8333ZM15.2292 38.5417V21.1042H9.45833V38.5417H15.2292Z" fill="black"/>
</svg>
