<svg width="48" height="50" viewBox="0 0 48 50" fill="none" xmlns="http://www.w3.org/2000/svg">
<path d="M6.33342 41.6666C5.18758 41.6666 4.20703 41.259 3.39175 40.4437C2.57647 39.6285 2.16814 38.6472 2.16675 37.5V12.5C2.16675 11.3541 2.57508 10.3736 3.39175 9.55831C4.20842 8.74303 5.18897 8.3347 6.33342 8.33331H39.6668C40.8126 8.33331 41.7938 8.74165 42.6105 9.55831C43.4272 10.375 43.8348 11.3555 43.8334 12.5V37.5C43.8334 38.6458 43.4258 39.6271 42.6105 40.4437C41.7952 41.2604 40.814 41.668 39.6668 41.6666H6.33342ZM23.0001 27.0833L39.6668 16.6666V12.5L23.0001 22.9166L6.33342 12.5V16.6666L23.0001 27.0833Z" fill="black"/>
</svg>
