<svg width="50" height="50" viewBox="0 0 50 50" fill="none" xmlns="http://www.w3.org/2000/svg">
<path d="M8.33342 41.6667C7.18758 41.6667 6.20703 41.259 5.39175 40.4437C4.57647 39.6285 4.16814 38.6472 4.16675 37.5V12.5C4.16675 11.3542 4.57508 10.3736 5.39175 9.55833C6.20842 8.74305 7.18897 8.33472 8.33342 8.33333H41.6668C42.8126 8.33333 43.7938 8.74166 44.6105 9.55833C45.4272 10.375 45.8348 11.3556 45.8334 12.5V37.5C45.8334 38.6458 45.4258 39.6271 44.6105 40.4437C43.7952 41.2604 42.814 41.668 41.6668 41.6667H8.33342ZM25.0001 27.0833L41.6668 16.6667V12.5L25.0001 22.9167L8.33342 12.5V16.6667L25.0001 27.0833Z" fill="#191F1F"/>
</svg>
