<svg width="49" height="49" viewBox="0 0 49 49" fill="none" xmlns="http://www.w3.org/2000/svg">
<path d="M31.0743 12.3113L36.2397 8.35044L29.7268 8.16669L27.5626 2.04169L25.3984 8.16669L18.8855 8.35044L24.0509 12.3113L22.193 18.5588L27.5626 14.8634L32.9322 18.5588L31.0743 12.3113Z" fill="black"/>
<path d="M40.0371 25.0104L43.3854 22.4583L39.1796 22.3562L37.7708 18.375L36.3621 22.3562L32.1562 22.4583L35.5046 25.0104L34.3 29.0529L37.7708 26.6642L41.2417 29.0529L40.0371 25.0104Z" fill="black"/>
<path d="M14.2917 12.25C14.2917 24.6633 24.3367 34.7083 36.75 34.7083C37.8321 34.7083 38.8938 34.6267 39.935 34.4838C36.6479 39.5267 30.9721 42.875 24.5 42.875C14.3529 42.875 6.125 34.6471 6.125 24.5C6.125 18.0279 9.47333 12.3521 14.5163 9.065C14.3733 10.1063 14.2917 11.1679 14.2917 12.25Z" fill="black" stroke="black" stroke-width="2" stroke-linecap="round" stroke-linejoin="round"/>
</svg>
